<svg xmlns="http://www.w3.org/2000/svg" width="300" height="100" viewBox="0 0 79.4 26.5">
  <path fill="#fbfbfb" d="M-.2 0v26.5h79.4V0H-.2zm27.8 10l.8 1.2 1.4.5-.8 1.2v1.4l-1.4-.4-1.4.4V13l-.9-1.2 1.4-.5.9-1.1zm5.5 0l1 1.2 1.3.5-.8 1.2v1.4l-1.4-.4-1.4.4V13l-.9-1.2 1.4-.5.8-1.1zm5.6 0l.9 1.2 1.4.5-.9 1.2v1.4l-1.3-.4-1.4.4V13l-.9-1.2 1.4-.5.8-1.1zm5.6 0l.9 1.2 1.4.5-.9 1.2v1.4l-1.3-.4-1.4.4V13l-.9-1.2 1.4-.5.8-1.1zm5.6 0l.9 1.2 1.4.5-.9 1.2v1.4l-1.4-.4-1.3.4V13l-.9-1.2 1.4-.5.8-1.1z"/>
  <g fill="none" stroke="#000" stroke-width=".3">
    <path stroke-width=".182919" d="M29 14.3l-1.4-.4-1.4.4V13l-.9-1.2 1.4-.5.9-1.1.8 1.1 1.4.5-.8 1.2zM34.6 14.3l-1.4-.4-1.4.4V13l-.9-1.2 1.4-.5.8-1.1 1 1.1 1.3.5-.8 1.2zM40.2 14.3l-1.4-.4-1.4.4V13l-.9-1.2 1.4-.5.8-1.1.9 1.1 1.4.5-.9 1.2zM45.7 14.3l-1.3-.4-1.4.4V13l-.9-1.2 1.4-.5.8-1.1.9 1.1 1.4.5-.9 1.2zM51.3 14.3l-1.4-.4-1.3.4V13l-.9-1.2 1.4-.5.8-1.1.9 1.1 1.4.5-.9 1.2z"/>
  </g>
</svg>
